<svg width="128" height="64" viewBox="0 0 128 64" fill="none" xmlns="http://www.w3.org/2000/svg">
  <defs>
    <linearGradient id="nexusOrbit" x1="14" y1="8" x2="54" y2="56" gradientUnits="userSpaceOnUse">
      <stop stop-color="#00CFFF"/>
      <stop offset="1" stop-color="#A56CFF"/>
    </linearGradient>
    <linearGradient id="nexusGlow" x1="19" y1="18" x2="49" y2="46" gradientUnits="userSpaceOnUse">
      <stop stop-color="#FFFFFF"/>
      <stop offset="1" stop-color="#D7E3FF"/>
    </linearGradient>
  </defs>
  <circle cx="32" cy="32" r="21" stroke="url(#nexusOrbit)" stroke-width="1.2" stroke-linecap="round" stroke-dasharray="1.2 8.2" opacity="0.95"/>
  <ellipse cx="32" cy="32" rx="26" ry="18" stroke="url(#nexusOrbit)" stroke-width="1.1" opacity="0.65" transform="rotate(26 32 32)"/>
  <ellipse cx="32" cy="32" rx="26" ry="18" stroke="url(#nexusOrbit)" stroke-width="1.1" opacity="0.55" transform="rotate(-33 32 32)"/>
  <circle cx="15" cy="21" r="2.3" fill="#00CFFF"/>
  <circle cx="48" cy="16" r="2.4" fill="#B88CFF"/>
  <circle cx="53" cy="34" r="2.8" fill="#E6EBFF"/>
  <circle cx="41" cy="51" r="2.4" fill="#7DE6FF"/>
  <circle cx="19" cy="50" r="2.2" fill="#C39BFF"/>
  <circle cx="12" cy="33" r="2.2" fill="#FFFFFF"/>
  <circle cx="32" cy="32" r="18" fill="#0F1923" stroke="url(#nexusOrbit)" stroke-width="1.1"/>
  <path d="M24 42V22.5L40 41.5V22" stroke="url(#nexusGlow)" stroke-width="4.2" stroke-linecap="round" stroke-linejoin="round"/>
  <path d="M24 42V22.5L40 41.5V22" stroke="#00CFFF" stroke-width="1.1" stroke-linecap="round" stroke-linejoin="round" opacity="0.45"/>
  <text x="63" y="38" fill="#E2EAF5" font-family="Arial, Helvetica, sans-serif" font-size="22" font-weight="700" letter-spacing="7">NEXUS</text>
</svg>
